<?xml version="1.0" standalone="no"?>
<!DOCTYPE svg PUBLIC "-//W3C//DTD SVG 20010904//EN"
 "http://www.w3.org/TR/2001/REC-SVG-20010904/DTD/svg10.dtd">
<svg version="1.0" xmlns="http://www.w3.org/2000/svg"
 width="110.000000pt" height="110.000000pt" viewBox="0 0 110.000000 110.000000"
 preserveAspectRatio="xMidYMid meet">
<metadata>
Created by potrace 1.11, written by Peter Selinger 2001-2013
</metadata>
<g transform="translate(0.000000,110.000000) scale(0.100000,-0.100000)"
fill="#000000" stroke="none">
<path d="M0 550 l0 -400 150 0 150 0 0 50 0 50 -100 0 -100 0 0 350 0 350 -50
0 -50 0 0 -400z"/>
<path d="M200 650 l0 -300 50 0 50 0 0 300 0 300 -50 0 -50 0 0 -300z"/>
<path d="M400 550 l0 -400 150 0 150 0 0 250 0 250 -70 0 -70 0 0 -50 c0 -43
3 -50 20 -50 19 0 20 -7 20 -150 l0 -150 -50 0 -50 0 0 300 0 300 50 0 50 0 0
-50 0 -50 50 0 50 0 0 100 0 100 -150 0 -150 0 0 -400z"/>
<path d="M800 550 l0 -400 50 0 50 0 0 100 0 100 50 0 50 0 0 -100 0 -100 50
0 50 0 0 400 0 400 -150 0 -150 0 0 -400z m200 100 l0 -200 -50 0 -50 0 0 200
0 200 50 0 50 0 0 -200z"/>
</g>
</svg>
