<svg width="14" height="20" viewBox="0 0 14 20" fill="none" xmlns="http://www.w3.org/2000/svg">
<path d="M13.5 8C13.5 9.13894 13.0993 10.3696 12.4624 11.598C11.8277 12.8219 10.9757 14.0108 10.114 15.0571C9.25359 16.102 8.39175 16.9947 7.74448 17.6266C7.44096 17.9229 7.1853 18.1611 7 18.3301C6.8147 18.1611 6.55904 17.9229 6.25552 17.6266C5.60825 16.9947 4.74641 16.102 3.88597 15.0571C3.0243 14.0108 2.17228 12.8219 1.53763 11.598C0.900722 10.3696 0.5 9.13894 0.5 8C0.5 4.41015 3.41015 1.5 7 1.5C10.5899 1.5 13.5 4.41015 13.5 8Z" stroke="#AAAAAA"/>
<circle cx="7" cy="8" r="2" fill="#AAAAAA"/>
</svg>
