<svg width="20" height="20" viewBox="0 0 20 20" fill="none" xmlns="http://www.w3.org/2000/svg">
<circle cx="10" cy="10" r="9.5" stroke="#AAAAAA" stroke-linecap="round" stroke-linejoin="round"/>
<path d="M1 10H19" stroke="#AAAAAA" stroke-linecap="round" stroke-linejoin="round"/>
<path d="M2.5 15.5C2.5 15.5 4.5 14.5 10 14.5C15.5 14.5 17.5 15.5 17.5 15.5" stroke="#AAAAAA" stroke-linecap="round" stroke-linejoin="round"/>
<path d="M2.5 4.5C2.5 4.5 4.5 5.5 10 5.5C15.5 5.5 17.5 4.5 17.5 4.5" stroke="#AAAAAA" stroke-linecap="round" stroke-linejoin="round"/>
<path d="M10 0.5C10 0.5 15 3.5 15 10C15 16.5 10 19.5 10 19.5" stroke="#AAAAAA" stroke-linecap="round" stroke-linejoin="round"/>
<path d="M10 0.5C10 0.5 5 3.5 5 10C5 16.5 10 19.5 10 19.5" stroke="#AAAAAA" stroke-linecap="round" stroke-linejoin="round"/>
<path d="M10 0.5V19.5" stroke="#AAAAAA" stroke-linecap="round" stroke-linejoin="round"/>
</svg>
