<svg width="60" height="60" viewBox="0 0 60 60" fill="none" xmlns="http://www.w3.org/2000/svg">
<mask id="mask0" mask-type="alpha" maskUnits="userSpaceOnUse" x="0" y="0" width="60" height="60">
<circle cx="30" cy="30" r="30" fill="#E6F6F6"/>
</mask>
<g mask="url(#mask0)">
<circle cx="30" cy="30" r="30" fill="#F5F5F5"/>
<path opacity="0.1" d="M54 60H5.00005V53.5522C4.99337 52.0872 5.63724 50.6941 6.7527 49.7584C11.1952 46.1446 16.0105 43.0249 21.1155 40.454C21.2692 40.3791 21.368 40.2216 21.368 40.0492V35.7456C20.6744 34.5603 20.2013 33.2565 19.9718 31.8994C19.4371 31.8544 18.739 31.0972 17.9815 28.4056C16.9493 24.7168 18.0484 24.177 18.9767 24.2595C18.8036 23.7714 18.6692 23.2698 18.5757 22.76C18.2103 21.1615 18.2103 19.5001 18.5757 17.9016C19.0405 16.0152 20.0119 14.2953 21.3829 12.9308C22.156 12.1015 23.0293 11.3735 23.9821 10.764C24.7589 10.2114 25.6093 9.77207 26.5071 9.45942C27.2475 9.20451 28.0206 9.05531 28.8019 9.01707C30.8227 8.9181 32.8026 9.239 34.5352 10.2542C35.6907 10.857 36.6614 11.7672 37.3424 12.8858C38.0234 14.0044 41.9988 13.2232 40.4243 22.7675C40.3308 23.2773 40.1964 23.7789 40.0233 24.267C40.9516 24.177 42.0507 24.7243 41.0185 28.4131C40.2758 31.1047 39.5332 31.8619 39.0282 31.9069C38.7987 33.2497 38.3256 34.5385 37.632 35.7081V40.0717C37.632 40.2441 37.7308 40.4016 37.8845 40.4765C42.9887 43.0407 47.804 46.1529 52.2473 49.7584C53.3628 50.6941 54.0066 52.0872 54 53.5522V60Z" fill="#222222"/>
</g>
</svg>
