<svg width="31" height="30" viewBox="0 0 31 30" fill="none" xmlns="http://www.w3.org/2000/svg">
<path d="M15.0653 4.44399C15.1337 4.27973 15.3663 4.27973 15.4347 4.44399L18.1126 10.8826C18.1414 10.9518 18.2065 10.9991 18.2813 11.0051L25.2323 11.5624C25.4096 11.5766 25.4815 11.7979 25.3464 11.9136L20.0505 16.4502C19.9935 16.499 19.9687 16.5755 19.9861 16.6485L21.6041 23.4315C21.6453 23.6045 21.4571 23.7413 21.3053 23.6485L15.3543 20.0137C15.2902 19.9746 15.2098 19.9746 15.1457 20.0137L9.19473 23.6485C9.04291 23.7413 8.85466 23.6045 8.89593 23.4315L10.5139 16.6485C10.5313 16.5755 10.5065 16.499 10.4495 16.4502L5.15357 11.9136C5.01846 11.7979 5.09037 11.5766 5.2677 11.5624L12.2187 11.0051C12.2935 10.9991 12.3586 10.9518 12.3874 10.8826L15.0653 4.44399Z" stroke="#AAAAAA" stroke-linecap="round" stroke-linejoin="round"/>
</svg>
