<svg width="14" height="14" viewBox="0 0 14 14" fill="none" xmlns="http://www.w3.org/2000/svg">
<path d="M6.81534 1.44399C6.88365 1.27973 7.11635 1.27973 7.18466 1.44399L8.80461 5.3388C8.83341 5.40805 8.89853 5.45537 8.97329 5.46136L13.1781 5.79845C13.3554 5.81267 13.4273 6.03397 13.2922 6.14971L10.0886 8.89393C10.0316 8.94272 10.0068 9.01928 10.0242 9.09223L11.0029 13.1954C11.0442 13.3684 10.856 13.5052 10.7041 13.4125L7.10425 11.2137C7.04025 11.1746 6.95975 11.1746 6.89575 11.2137L3.29587 13.4125C3.14405 13.5052 2.9558 13.3684 2.99708 13.1954L3.97583 9.09223C3.99323 9.01928 3.96836 8.94272 3.9114 8.89393L0.707796 6.14971C0.572688 6.03397 0.644593 5.81267 0.821924 5.79845L5.02671 5.46136C5.10147 5.45537 5.16659 5.40805 5.19539 5.3388L6.81534 1.44399Z" stroke="white" stroke-linecap="round" stroke-linejoin="round"/>
</svg>
