<svg width="30" height="30" viewBox="0 0 30 30" fill="none" xmlns="http://www.w3.org/2000/svg">
<path d="M16.162 21.994C16.771 21.994 17.02 21.588 17.013 21.079C16.982 19.162 17.727 18.13 19.072 19.475C20.56 20.963 20.868 21.994 22.675 21.994H25.875C26.683 21.994 27.001 21.734 27.001 21.326C27.001 20.463 25.58 18.94 24.376 17.822C22.69 16.257 22.611 16.22 24.063 14.336C25.864 11.997 28.22 9 26.136 9H22.155C21.383 9 21.327 9.435 21.052 10.083C20.057 12.43 18.166 15.47 17.448 15.005C16.697 14.52 17.041 12.599 17.098 9.744C17.113 8.99 17.109 8.473 15.957 8.205C15.328 8.06 14.716 8 14.148 8C11.875 8 10.307 8.953 11.198 9.119C12.769 9.412 12.618 12.811 12.252 14.279C11.614 16.835 9.216 12.255 8.217 9.974C7.976 9.426 7.902 9 7.042 9H3.787C3.295 9 3 9.16 3 9.516C3 10.118 5.96 16.236 8.786 19.286C11.542 22.261 14.266 21.994 16.162 21.994Z" fill="#4D7198"/>
</svg>
