<svg width="30" height="30" viewBox="0 0 30 30" fill="none" xmlns="http://www.w3.org/2000/svg">
<path d="M20.5998 15C19.7998 15 18.1998 16.6 14.9998 16.6C11.7998 16.6 10.1998 15 9.3998 15C8.5166 15 7.7998 15.7168 7.7998 16.6C7.7998 17.4 8.2542 17.7848 8.5998 17.9872C9.5478 18.5416 12.5998 19.8 12.5998 19.8L9.1998 24.1504C9.1998 24.1504 8.5998 24.8984 8.5998 25.4C8.5998 26.2832 9.3166 27 10.1998 27C11.0166 27 11.387 26.4752 11.387 26.4752C11.387 26.4752 14.9942 22.1944 14.9998 22.2C15.0054 22.1944 18.6126 26.4752 18.6126 26.4752C18.6126 26.4752 18.983 27 19.7998 27C20.683 27 21.3998 26.2832 21.3998 25.4C21.3998 24.8984 20.7998 24.1504 20.7998 24.1504L17.3998 19.8C17.3998 19.8 20.4518 18.5416 21.3998 17.9872C21.7454 17.7848 22.1998 17.4 22.1998 16.6C22.1998 15.7168 21.483 15 20.5998 15Z" fill="#F2720C"/>
<path d="M14.9999 3C11.9071 3 9.3999 5.5072 9.3999 8.6C9.3999 11.6928 11.9071 14.2 14.9999 14.2C18.0919 14.2 20.5999 11.6928 20.5999 8.6C20.5999 5.5072 18.0919 3 14.9999 3ZM14.9999 11.4C13.4535 11.4 12.1999 10.1472 12.1999 8.6C12.1999 7.0536 13.4535 5.8 14.9999 5.8C16.5455 5.8 17.7999 7.0536 17.7999 8.6C17.7999 10.1472 16.5455 11.4 14.9999 11.4Z" fill="#F2720C"/>
</svg>
