<svg width="30" height="30" viewBox="0 0 30 30" fill="none" xmlns="http://www.w3.org/2000/svg">
<path fill-rule="evenodd" clip-rule="evenodd" d="M21.3839 24.7791C21.7059 25.0071 22.1209 25.0641 22.4909 24.9241C22.8609 24.7831 23.1329 24.4671 23.2149 24.0841C24.0839 20.0001 26.1919 9.66315 26.9829 5.94815C27.0429 5.66815 26.9429 5.37715 26.7229 5.19015C26.5029 5.00315 26.1979 4.94915 25.9259 5.05015C21.7329 6.60215 8.81991 11.4471 3.54191 13.4001C3.20691 13.5241 2.98891 13.8461 2.99991 14.1991C3.01191 14.5531 3.24991 14.8601 3.59291 14.9631C5.95991 15.6711 9.06691 16.6561 9.06691 16.6561C9.06691 16.6561 10.5189 21.0411 11.2759 23.2711C11.3709 23.5511 11.5899 23.7711 11.8789 23.8471C12.1669 23.9221 12.4749 23.8431 12.6899 23.6401C13.9059 22.4921 15.7859 20.7171 15.7859 20.7171C15.7859 20.7171 19.3579 23.3361 21.3839 24.7791ZM10.3739 16.1021L12.0529 21.6401L12.4259 18.1331C12.4259 18.1331 18.9129 12.2821 22.6109 8.94715C22.7189 8.84915 22.7339 8.68515 22.6439 8.57015C22.5549 8.45515 22.3909 8.42815 22.2679 8.50615C17.9819 11.2431 10.3739 16.1021 10.3739 16.1021Z" fill="#2CA5DE"/>
</svg>
