<svg width="30" height="30" viewBox="0 0 30 30" fill="none" xmlns="http://www.w3.org/2000/svg">
<path d="M27 7.55705C26.117 7.94905 25.168 8.21305 24.172 8.33205C25.189 7.72305 25.97 6.75805 26.337 5.60805C25.386 6.17205 24.332 6.58205 23.21 6.80305C22.313 5.84605 21.032 5.24805 19.616 5.24805C16.437 5.24805 14.101 8.21405 14.819 11.293C10.728 11.088 7.1 9.12805 4.671 6.14905C3.381 8.36205 4.002 11.257 6.194 12.723C5.388 12.697 4.628 12.476 3.965 12.107C3.911 14.388 5.546 16.522 7.914 16.997C7.221 17.185 6.462 17.229 5.69 17.081C6.316 19.037 8.134 20.46 10.29 20.5C8.22 22.123 5.612 22.848 3 22.54C5.179 23.937 7.768 24.752 10.548 24.752C19.69 24.752 24.855 17.031 24.543 10.106C25.505 9.41105 26.34 8.54405 27 7.55705Z" fill="#1FAEE9"/>
</svg>
