<svg width="30" height="30" viewBox="0 0 30 30" fill="none" xmlns="http://www.w3.org/2000/svg">
<path d="M3.05713 27L4.74413 20.837C3.70313 19.033 3.15613 16.988 3.15713 14.891C3.16013 8.335 8.49513 3 15.0501 3C18.2311 3.001 21.2171 4.24 23.4631 6.488C25.7081 8.736 26.9441 11.724 26.9431 14.902C26.9401 21.459 21.6051 26.794 15.0501 26.794C13.0601 26.793 11.0991 26.294 9.36213 25.346L3.05713 27ZM9.65413 23.193C11.3301 24.188 12.9301 24.784 15.0461 24.785C20.4941 24.785 24.9321 20.351 24.9351 14.9C24.9371 9.438 20.5201 5.01 15.0541 5.008C9.60213 5.008 5.16713 9.442 5.16513 14.892C5.16413 17.117 5.81613 18.783 6.91113 20.526L5.91213 24.174L9.65413 23.193ZM21.0411 17.729C20.9671 17.605 20.7691 17.531 20.4711 17.382C20.1741 17.233 18.7131 16.514 18.4401 16.415C18.1681 16.316 17.9701 16.266 17.7711 16.564C17.5731 16.861 17.0031 17.531 16.8301 17.729C16.6571 17.927 16.4831 17.952 16.1861 17.803C15.8891 17.654 14.9311 17.341 13.7961 16.328C12.9131 15.54 12.3161 14.567 12.1431 14.269C11.9701 13.972 12.1251 13.811 12.2731 13.663C12.4071 13.53 12.5701 13.316 12.7191 13.142C12.8701 12.97 12.9191 12.846 13.0191 12.647C13.1181 12.449 13.0691 12.275 12.9941 12.126C12.9191 11.978 12.3251 10.515 12.0781 9.92C11.8361 9.341 11.5911 9.419 11.4091 9.41L10.8391 9.4C10.6411 9.4 10.3191 9.474 10.0471 9.772C9.77513 10.07 9.00713 10.788 9.00713 12.251C9.00713 13.714 10.0721 15.127 10.2201 15.325C10.3691 15.523 12.3151 18.525 15.2961 19.812C16.0051 20.118 16.5591 20.301 16.9901 20.438C17.7021 20.664 18.3501 20.632 18.8621 20.556C19.4331 20.471 20.6201 19.837 20.8681 19.143C21.1161 18.448 21.1161 17.853 21.0411 17.729Z" fill="#66BC5A"/>
</svg>
